<svg width="30" height="34" viewBox="0 0 30 34" fill="none" xmlns="http://www.w3.org/2000/svg">
<path d="M25 33.6654C23.6111 33.6654 22.4306 33.1793 21.4583 32.207C20.4861 31.2348 20 30.0543 20 28.6654C20 28.4709 20.0139 28.2693 20.0417 28.0604C20.0694 27.8515 20.1111 27.6643 20.1667 27.4987L8.41667 20.6654C7.94444 21.082 7.41667 21.4087 6.83333 21.6454C6.25 21.882 5.63889 21.9998 5 21.9987C3.61111 21.9987 2.43056 21.5126 1.45833 20.5404C0.486111 19.5681 0 18.3876 0 16.9987C0 15.6098 0.486111 14.4293 1.45833 13.457C2.43056 12.4848 3.61111 11.9987 5 11.9987C5.63889 11.9987 6.25 12.117 6.83333 12.3537C7.41667 12.5904 7.94444 12.9165 8.41667 13.332L20.1667 6.4987C20.1111 6.33203 20.0694 6.14481 20.0417 5.93703C20.0139 5.72925 20 5.52759 20 5.33203C20 3.94314 20.4861 2.76259 21.4583 1.79036C22.4306 0.818142 23.6111 0.332031 25 0.332031C26.3889 0.332031 27.5694 0.818142 28.5417 1.79036C29.5139 2.76259 30 3.94314 30 5.33203C30 6.72092 29.5139 7.90148 28.5417 8.8737C27.5694 9.84592 26.3889 10.332 25 10.332C24.3611 10.332 23.75 10.2143 23.1667 9.9787C22.5833 9.74314 22.0556 9.41648 21.5833 8.9987L9.83333 15.832C9.88889 15.9987 9.93056 16.1865 9.95833 16.3954C9.98611 16.6043 10 16.8054 10 16.9987C10 17.1931 9.98611 17.3948 9.95833 17.6037C9.93056 17.8126 9.88889 17.9998 9.83333 18.1654L21.5833 24.9987C22.0556 24.582 22.5833 24.2559 23.1667 24.0204C23.75 23.7848 24.3611 23.6665 25 23.6654C26.3889 23.6654 27.5694 24.1515 28.5417 25.1237C29.5139 26.0959 30 27.2765 30 28.6654C30 30.0543 29.5139 31.2348 28.5417 32.207C27.5694 33.1793 26.3889 33.6654 25 33.6654Z" fill="#2864FF"/>
</svg>
