<svg width="16" height="12" viewBox="0 0 16 12" fill="none" xmlns="http://www.w3.org/2000/svg">
<path d="M0.0898438 5.96039C0.0898438 6.33039 0.209844 6.64039 0.459844 6.88039L4.29984 10.6304C4.51984 10.8804 4.80984 11.0104 5.14984 11.0104C5.49984 11.0104 5.79984 10.8904 6.03984 10.6604C6.27984 10.4304 6.40984 10.1304 6.40984 9.78039C6.40984 9.43039 6.28984 9.13039 6.03984 8.89039L4.39984 7.25039H14.6998C15.0498 7.25039 15.3398 7.13039 15.5698 6.88039C15.7998 6.63039 15.9098 6.33039 15.9098 5.98039C15.9098 5.63039 15.7998 5.33039 15.5698 5.08039C15.3398 4.83039 15.0498 4.70039 14.6998 4.69039H4.39984L6.03984 3.03039C6.27984 2.79039 6.40984 2.50039 6.40984 2.17039C6.40984 1.82039 6.28984 1.52039 6.03984 1.28039C5.78984 1.04039 5.49984 0.900391 5.13984 0.900391C4.81984 0.900391 4.52984 1.04039 4.28984 1.31039L0.449843 5.06039C0.209843 5.31039 0.0898438 5.60039 0.0898438 5.96039Z" fill="black"/>
</svg>
