<svg width="29" height="30" viewBox="0 0 29 30" fill="none" xmlns="http://www.w3.org/2000/svg">
<path d="M14.5242 4.42578C10.5246 4.42578 7.27421 7.6762 7.27421 11.6758V15.1679C7.27421 15.9049 6.96004 17.0287 6.58546 17.657L5.19588 19.9649C4.33796 21.3908 4.93005 22.9737 6.50088 23.5054C11.7088 25.2454 17.3275 25.2454 22.5355 23.5054C23.9975 23.022 24.638 21.2941 23.8405 19.9649L22.4509 17.657C22.0884 17.0287 21.7742 15.9049 21.7742 15.1679V11.6758C21.7742 7.68828 18.5117 4.42578 14.5242 4.42578Z" stroke="black" stroke-width="1.8125" stroke-miterlimit="10" stroke-linecap="round"/>
<path d="M16.7594 4.78031C16.3848 4.67156 15.9982 4.58698 15.5994 4.53865C14.4394 4.39365 13.3277 4.47823 12.2886 4.78031C12.639 3.88615 13.509 3.25781 14.524 3.25781C15.539 3.25781 16.409 3.88615 16.7594 4.78031Z" stroke="black" stroke-width="1.8125" stroke-miterlimit="10" stroke-linecap="round" stroke-linejoin="round"/>
<path d="M18.1492 23.9375C18.1492 25.9313 16.5179 27.5625 14.5242 27.5625C13.5333 27.5625 12.615 27.1517 11.9625 26.4992C11.31 25.8467 10.8992 24.9283 10.8992 23.9375" stroke="black" stroke-width="1.8125" stroke-miterlimit="10"/>
</svg>
