<svg width="22" height="23" viewBox="0 0 22 23" fill="none" xmlns="http://www.w3.org/2000/svg">
<g clip-path="url(#clip0_1879_18986)">
<path fill-rule="evenodd" clip-rule="evenodd" d="M11.7158 14.7851C11.545 14.9557 11.3135 15.0516 11.0722 15.0516C10.8308 15.0516 10.5993 14.9557 10.4286 14.7851L5.27889 9.63541C5.19194 9.55144 5.12259 9.45099 5.07488 9.33993C5.02717 9.22887 5.00206 9.10941 5.00101 8.98854C4.99996 8.86767 5.02299 8.7478 5.06877 8.63593C5.11454 8.52405 5.18213 8.42241 5.2676 8.33694C5.35308 8.25147 5.45471 8.18387 5.56659 8.1381C5.67846 8.09233 5.79833 8.0693 5.91921 8.07035C6.04008 8.0714 6.15953 8.09651 6.27059 8.14422C6.38165 8.19193 6.4821 8.26128 6.56608 8.34822L11.0722 12.8543L15.5782 8.34822C15.7499 8.1824 15.9799 8.09064 16.2186 8.09272C16.4572 8.09479 16.6856 8.19053 16.8543 8.35931C17.0231 8.52809 17.1189 8.75641 17.1209 8.99509C17.123 9.23378 17.0312 9.46373 16.8654 9.63541L11.7158 14.7851Z" fill="black"/>
</g>
<defs>
<clipPath id="clip0_1879_18986">
<rect width="21.8477" height="21.8477" fill="white" transform="translate(0.151855 0.488281)"/>
</clipPath>
</defs>
</svg>
