<svg width="6" height="6" viewBox="0 0 6 6" fill="none" xmlns="http://www.w3.org/2000/svg">
<path d="M5.436 4.023L5.04 4.698L3.483 3.798C3.375 3.732 3.279 3.666 3.195 3.6C3.111 3.534 3.036 3.45 2.97 3.348C3.066 3.546 3.114 3.765 3.114 4.005V5.787H2.322V4.014C2.322 3.894 2.328 3.783 2.34 3.681C2.358 3.579 2.391 3.48 2.439 3.384C2.373 3.468 2.301 3.543 2.223 3.609C2.145 3.675 2.055 3.738 1.953 3.798L0.405 4.689L0.00900002 4.014L1.557 3.114C1.785 2.976 2.013 2.904 2.241 2.898C2.121 2.886 2.004 2.865 1.89 2.835C1.782 2.799 1.671 2.745 1.557 2.673L0 1.764L0.396 1.089L1.953 1.989C2.061 2.055 2.157 2.124 2.241 2.196C2.325 2.268 2.4 2.355 2.466 2.457C2.37 2.247 2.322 2.022 2.322 1.782V0H3.114V1.773C3.114 1.893 3.105 2.007 3.087 2.115C3.075 2.217 3.045 2.316 2.997 2.412C3.063 2.328 3.135 2.253 3.213 2.187C3.291 2.121 3.381 2.055 3.483 1.989L5.031 1.098L5.427 1.773L3.879 2.673C3.777 2.739 3.675 2.79 3.573 2.826C3.471 2.862 3.363 2.886 3.249 2.898C3.363 2.91 3.471 2.934 3.573 2.97C3.675 3 3.777 3.048 3.879 3.114L5.436 4.023Z" fill="#E53835"/>
</svg>
