<svg width="58" height="60" viewBox="0 0 58 60" fill="none" xmlns="http://www.w3.org/2000/svg">
<path d="M39.1265 5H18.8748C10.0782 5 4.83398 10.425 4.83398 19.525V40.45C4.83398 49.575 10.0782 55 18.8748 55H39.1023C47.899 55 53.1432 49.575 53.1432 40.475V19.525C53.1673 10.425 47.9232 5 39.1265 5ZM32.2148 42.5H25.7623C24.7715 42.5 23.9498 41.65 23.9498 40.625C23.9498 39.6 24.7715 38.75 25.7623 38.75H32.2148C33.2057 38.75 34.0273 39.6 34.0273 40.625C34.0273 41.65 33.2298 42.5 32.2148 42.5ZM38.6673 31.875H19.334C18.3432 31.875 17.5215 31.025 17.5215 30C17.5215 28.975 18.3432 28.125 19.334 28.125H38.6673C39.6582 28.125 40.4798 28.975 40.4798 30C40.4798 31.025 39.6582 31.875 38.6673 31.875ZM43.5007 21.25H14.5007C13.5098 21.25 12.6882 20.4 12.6882 19.375C12.6882 18.35 13.5098 17.5 14.5007 17.5H43.5007C44.4915 17.5 45.3132 18.35 45.3132 19.375C45.3132 20.4 44.4915 21.25 43.5007 21.25Z" fill="#2864FF"/>
</svg>
