<svg width="21" height="18" viewBox="0 0 21 18" fill="none" xmlns="http://www.w3.org/2000/svg">
<path d="M0.640625 11.4062C0.810529 11.4062 0.973475 11.4737 1.09362 11.5939C1.21376 11.714 1.28125 11.877 1.28125 12.0469V15.25C1.28125 15.5898 1.41624 15.9157 1.65652 16.156C1.8968 16.3963 2.22269 16.5312 2.5625 16.5312H17.9375C18.2773 16.5312 18.6032 16.3963 18.8435 16.156C19.0838 15.9157 19.2188 15.5898 19.2188 15.25V12.0469C19.2188 11.877 19.2862 11.714 19.4064 11.5939C19.5265 11.4737 19.6895 11.4062 19.8594 11.4062C20.0293 11.4062 20.1922 11.4737 20.3124 11.5939C20.4325 11.714 20.5 11.877 20.5 12.0469V15.25C20.5 15.9296 20.23 16.5814 19.7495 17.062C19.2689 17.5425 18.6171 17.8125 17.9375 17.8125H2.5625C1.88288 17.8125 1.2311 17.5425 0.750539 17.062C0.269977 16.5814 0 15.9296 0 15.25V12.0469C0 11.877 0.0674942 11.714 0.187635 11.5939C0.307775 11.4737 0.470721 11.4062 0.640625 11.4062Z" fill="black"/>
<path d="M9.79633 0.188208C9.85584 0.128549 9.92653 0.0812155 10.0044 0.0489197C10.0822 0.016624 10.1656 0 10.2499 0C10.3342 0 10.4176 0.016624 10.4954 0.0489197C10.5733 0.0812155 10.6439 0.128549 10.7035 0.188208L14.5472 4.03196C14.6675 4.15225 14.7351 4.3154 14.7351 4.48552C14.7351 4.65564 14.6675 4.81879 14.5472 4.93908C14.4269 5.05938 14.2638 5.12695 14.0936 5.12695C13.9235 5.12695 13.7604 5.05938 13.6401 4.93908L10.8905 2.18824V13.4543C10.8905 13.6242 10.823 13.7871 10.7029 13.9073C10.5827 14.0274 10.4198 14.0949 10.2499 14.0949C10.08 14.0949 9.91704 14.0274 9.7969 13.9073C9.67676 13.7871 9.60927 13.6242 9.60927 13.4543V2.18824L6.85971 4.93908C6.80014 4.99865 6.72943 5.04589 6.65161 5.07813C6.57379 5.11036 6.49038 5.12695 6.40614 5.12695C6.32191 5.12695 6.2385 5.11036 6.16068 5.07813C6.08286 5.04589 6.01214 4.99865 5.95258 4.93908C5.89302 4.87952 5.84577 4.80881 5.81354 4.73099C5.7813 4.65316 5.76471 4.56975 5.76471 4.48552C5.76471 4.40129 5.7813 4.31788 5.81354 4.24005C5.84577 4.16223 5.89302 4.09152 5.95258 4.03196L9.79633 0.188208Z" fill="black"/>
</svg>
