<svg width="10" height="10" viewBox="0 0 10 10" fill="none" xmlns="http://www.w3.org/2000/svg">
<g clip-path="url(#clip0_1646_15164)">
<path d="M9.53481 0.0271868C9.59609 0.000794642 9.66388 -0.00660036 9.72941 0.00595858C9.79494 0.0185175 9.85519 0.0504524 9.90237 0.0976313C9.94955 0.14481 9.98148 0.205062 9.99404 0.27059C10.0066 0.336118 9.99921 0.403908 9.97281 0.465187L5.97281 9.79852C5.94619 9.86067 5.90129 9.91325 5.84408 9.94928C5.78688 9.98532 5.72006 10.0031 5.65251 10.0003C5.58496 9.99747 5.51986 9.97417 5.46586 9.93349C5.41186 9.89281 5.3715 9.83667 5.35015 9.77252L4.06948 5.93052L0.227481 4.65052C0.163118 4.62929 0.106755 4.58895 0.0659056 4.53488C0.0250549 4.4808 0.00165844 4.41556 -0.00116634 4.34785C-0.00399017 4.28014 0.0138922 4.21317 0.0500975 4.15588C0.0863028 4.09859 0.139111 4.0537 0.201481 4.02719L9.53481 0.0271868Z" fill="#2864FF"/>
</g>
<defs>
<clipPath id="clip0_1646_15164">
<rect width="10" height="10" fill="white" transform="matrix(-1 0 0 1 10 0)"/>
</clipPath>
</defs>
</svg>
